<svg enable-background="new 0 0 50 58" height="512" viewBox="0 0 50 58" width="512" xmlns="http://www.w3.org/2000/svg"><path d="m29.744 0c-6.56 0-11.744 5.44-11.744 12v9h-8v6h8v19c0 3.281-2.72 6-6 6s-6-2.719-6-6h-6c0 6.56 5.44 12 12 12s12-5.44 12-12v-19h8v-6h-8v-9c0-3.281 2.464-6.051 5.744-6.051s6.256 2.77 6.256 6.051h6c0-6.56-5.696-12-12.256-12z" fill="#366db6"/><path d="m45.078 40.845-4.078 4.077-4.078-4.078c-1.126-1.126-2.952-1.126-4.078 0s-1.126 2.952 0 4.078l4.078 4.078-4.078 4.078c-1.126 1.126-1.126 2.952 0 4.078s2.952 1.126 4.078 0l4.078-4.078 4.078 4.078c1.126 1.126 2.952 1.126 4.078 0s1.126-2.952 0-4.078l-4.078-4.078 4.078-4.078c1.126-1.126 1.126-2.952 0-4.078s-2.952-1.125-4.078.001z" fill="#dd352e"/></svg>